:FULLY-SPECIFIED
:FORCE-ALL-JOINTS-BE-3DOF
:DEGREES
951
root 1.32189 15.3724 32.8343 6.78297 -3.91909 365.18
lfemur 5.24239 -0.384236 2.7546
ltibia 4.66001 0 0
lfoot -31.4958 -15.0904 0
ltoes -31.529 0 0
rfemur -29.1326 -9.57737 -9.91471
rtibia 45.3839 0 0
rfoot -16.9332 -1.27148 0
rtoes -45.2975 0 0
lowerback -3.77265 -0.769081 -0.249846
upperback -1.55917 -0.955421 -7.38319
thorax 0.335327 -0.508068 -7.6241
lowerneck -6.9555 0.782098 3.56972
upperneck 2.01729 0.582275 3.73676
head 1.80769 0.418097 0.593044
lclavicle 4.04708e-15 -5.917e-14 0
lhumerus -59.525 -43.746 112.105
lradius 55.4181 0 0
lwrist 26.1445 0 0
lhand 41.7733 24.6688 0
lfingers 7.12502 0 0
lthumb 63.873 33.8206 0
rclavicle 4.04708e-15 -5.917e-14 0
rhumerus -1.80703 5.63591 -5.16182
rradius 39.4835 0 0
rwrist -16.7441 0 0
rhand -16.6163 -37.5061 0
rfingers 7.12502 0 0
rthumb 9.6052 -787.304 0
952
root 1.31584 15.3685 32.8378 6.80574 -3.99521 365.186
lfemur 5.31862 -0.446552 2.81796
ltibia 4.56353 0 0
lfoot -31.5412 -15.1028 0
ltoes -31.6182 0 0
rfemur -29.0636 -9.55499 -9.97248
rtibia 45.2432 0 0
rfoot -17.0437 -1.28019 0
rtoes -45.3753 0 0
lowerback -3.79748 -0.755388 -0.236153
upperback -1.56443 -0.935537 -7.38973
thorax 0.342657 -0.498124 -7.64006
lowerneck -6.95696 0.794788 3.59106
upperneck 2.01047 0.597599 3.73388
head 1.8052 0.425706 0.589202
lclavicle 4.19086e-15 -5.88224e-14 0
lhumerus -59.5635 -43.7589 112.154
lradius 55.4039 0 0
lwrist 26.1719 0 0
lhand 41.7873 24.7035 0
lfingers 7.12502 0 0
lthumb 63.8858 33.8491 0
rclavicle 4.19086e-15 -5.88224e-14 0
rhumerus -1.67638 5.55615 -4.9963
rradius 39.2997 0 0
rwrist -16.6916 0 0
rhand -16.6216 -37.4729 0
rfingers 7.12502 0 0
rthumb 9.60001 -787.272 0
953
root 1.30996 15.3647 32.8412 6.82734 -4.06893 365.192
lfemur 5.39314 -0.506636 2.88003
ltibia 4.46974 0 0
lfoot -31.5855 -15.1134 0
ltoes -31.7055 0 0
rfemur -28.997 -9.53476 -10.0275
rtibia 45.1079 0 0
rfoot -17.1521 -1.28692 0
rtoes -45.4497 0 0
lowerback -3.82108 -0.741909 -0.222968
upperback -1.56924 -0.915992 -7.39566
thorax 0.349855 -0.488341 -7.65502
lowerneck -6.95855 0.80705 3.61251
upperneck 2.00391 0.612316 3.73114
head 1.80285 0.433025 0.58536
lclavicle 4.32937e-15 -5.8459e-14 0
lhumerus -59.6005 -43.7722 112.202
lradius 55.3902 0 0
lwrist 26.1983 0 0
lhand 41.7997 24.7373 0
lfingers 7.12502 0 0
lthumb 63.8974 33.8781 0
rclavicle 4.32937e-15 -5.8459e-14 0
rhumerus -1.54868 5.4709 -4.83426
rradius 39.1183 0 0
rwrist -16.6385 0 0
rhand -16.6307 -37.4417 0
rfingers 7.12502 0 0
rthumb 9.59121 -787.243 0
954
root 1.30425 15.361 32.8444 6.84778 -4.14027 365.198
lfemur 5.46598 -0.564514 2.94083
ltibia 4.37859 0 0
lfoot -31.6286 -15.1224 0
ltoes -31.7909 0 0
rfemur -28.9328 -9.51667 -10.0799
rtibia 44.9779 0 0
rfoot -17.2586 -1.29167 0
rtoes -45.5205 0 0
lowerback -3.84348 -0.72864 -0.210284
upperback -1.5736 -0.896783 -7.401
thorax 0.356921 -0.478718 -7.669
lowerneck -6.96027 0.81889 3.63408
upperneck 1.9976 0.626431 3.72853
head 1.80062 0.440057 0.581517
lclavicle 4.46268e-15 -5.80801e-14 0
lhumerus -59.6359 -43.7859 112.25
lradius 55.3771 0 0
lwrist 26.2238 0 0
lhand 41.8105 24.7703 0
lfingers 7.12502 0 0
lthumb 63.9076 33.9075 0
rclavicle 4.46268e-15 -5.80801e-14 0
rhumerus -1.42388 5.38023 -4.67564
rradius 38.939 0 0
rwrist -16.5849 0 0
rhand -16.6435 -37.4126 0
rfingers 7.12502 0 0
rthumb 9.57885 -787.216 0
955
root 1.2987 15.3573 32.8475 6.86707 -4.20925 365.202
lfemur 5.53713 -0.620213 3.00035
ltibia 4.29007 0 0
lfoot -31.6706 -15.1297 0
ltoes -31.8743 0 0
rfemur -28.871 -9.50068 -10.1295
rtibia 44.8532 0 0
rfoot -17.3631 -1.29449 0
rtoes -45.5879 0 0
lowerback -3.8647 -0.715582 -0.198096
upperback -1.57753 -0.877906 -7.40573
thorax 0.363856 -0.469253 -7.682
lowerneck -6.96212 0.830311 3.65575
upperneck 1.99154 0.639953 3.72607
head 1.79851 0.446805 0.577674
lclavicle 4.59085e-15 -5.76858e-14 0
lhumerus -59.6699 -43.8 112.297
lradius 55.3644 0 0
lwrist 26.2482 0 0
lhand 41.8199 24.8025 0
lfingers 7.12502 0 0
lthumb 63.9165 33.9374 0
rclavicle 4.59085e-15 -5.76858e-14 0
rhumerus -1.30196 5.28423 -4.52043
rradius 38.762 0 0
rwrist -16.5307 0 0
rhand -16.6599 -37.3855 0
rfingers 7.12502 0 0
rthumb 9.56297 -787.191 0
956
root 1.29332 15.3537 32.8504 6.88522 -4.27591 365.206
lfemur 5.60664 -0.673758 3.05863
ltibia 4.20413 0 0
lfoot -31.7116 -15.1354 0
ltoes -31.9559 0 0
rfemur -28.8116 -9.48676 -10.1765
rtibia 44.7337 0 0
rfoot -17.4657 -1.2954 0
rtoes -45.6518 0 0
lowerback -3.88473 -0.70273 -0.186398
upperback -1.58101 -0.859358 -7.40989
thorax 0.370663 -0.459945 -7.69405
lowerneck -6.9641 0.84132 3.67752
upperneck 1.98572 0.652888 3.72373
head 1.79653 0.453274 0.573832
lclavicle 4.71394e-15 -5.72764e-14 0
lhumerus -59.7024 -43.8145 112.343
lradius 55.3522 0 0
lwrist 26.2717 0 0
lhand 41.8277 24.8338 0
lfingers 7.12502 0 0
lthumb 63.924 33.9678 0
rclavicle 4.71394e-15 -5.72764e-14 0
rhumerus -1.18289 5.18297 -4.36857
rradius 38.5872 0 0
rwrist -16.476 0 0
rhand -16.6799 -37.3603 0
rfingers 7.12502 0 0
rthumb 9.54363 -787.168 0
957
root 1.2881 15.3501 32.8532 6.90226 -4.34027 365.209
lfemur 5.6745 -0.725178 3.11566
ltibia 4.12075 0 0
lfoot -31.7514 -15.1394 0
ltoes -32.0356 0 0
rfemur -28.7545 -9.47489 -10.221
rtibia 44.6193 0 0
rfoot -17.5664 -1.29442 0
rtoes -45.7124 0 0
lowerback -3.90361 -0.690085 -0.175184
upperback -1.58407 -0.841136 -7.41346
thorax 0.377342 -0.450792 -7.70515
lowerneck -6.9662 0.851922 3.69939
upperneck 1.98015 0.665244 3.72153
head 1.79466 0.459467 0.56999
lclavicle 4.83202e-15 -5.68522e-14 0
lhumerus -59.7335 -43.8295 112.389
lradius 55.3404 0 0
lwrist 26.2943 0 0
lhand 41.834 24.8643 0
lfingers 7.12502 0 0
lthumb 63.9304 33.9987 0
rclavicle 4.83202e-15 -5.68522e-14 0
rhumerus -1.06664 5.07654 -4.22003
rradius 38.4146 0 0
rwrist -16.4208 0 0
rhand -16.7034 -37.3371 0
rfingers 7.12502 0 0
rthumb 9.52088 -787.146 0
958
root 1.28304 15.3466 32.8559 6.91819 -4.40236 365.212
lfemur 5.74075 -0.774497 3.17148
ltibia 4.03989 0 0
lfoot -31.7902 -15.1419 0
ltoes -32.1135 0 0
rfemur -28.6998 -9.46504 -10.2628
rtibia 44.5101 0 0
rfoot -17.6651 -1.29158 0
rtoes -45.7696 0 0
lowerback -3.92134 -0.677642 -0.164447
upperback -1.58671 -0.823236 -7.41646
thorax 0.383896 -0.441792 -7.71532
lowerneck -6.96843 0.86212 3.72136
upperneck 1.97481 0.677029 3.71947
head 1.79291 0.465386 0.566149
lclavicle 4.94515e-15 -5.64134e-14 0
lhumerus -59.7632 -43.8447 112.434
lradius 55.3292 0 0
lwrist 26.3159 0 0
lhand 41.8389 24.894 0
lfingers 7.12502 0 0
lthumb 63.9354 34.03 0
rclavicle 4.94515e-15 -5.64134e-14 0
rhumerus -0.953171 4.96501 -4.07478
rradius 38.2442 0 0
rwrist -16.365 0 0
rhand -16.7305 -37.3157 0
rfingers 7.12502 0 0
rthumb 9.49476 -787.127 0
959
root 1.27813 15.3431 32.8584 6.93304 -4.46221 365.213
lfemur 5.8054 -0.821743 3.22607
ltibia 3.96153 0 0
lfoot -31.828 -15.1428 0
ltoes -32.1895 0 0
rfemur -28.6473 -9.45719 -10.3021
rtibia 44.4059 0 0
rfoot -17.762 -1.28691 0
rtoes -45.8235 0 0
lowerback -3.93794 -0.665401 -0.154182
upperback -1.58893 -0.805655 -7.4189
thorax 0.390324 -0.432944 -7.72457
lowerneck -6.97078 0.871921 3.74342
upperneck 1.96971 0.688249 3.71753
head 1.79128 0.471036 0.562309
lclavicle 5.05339e-15 -5.59601e-14 0
lhumerus -59.7914 -43.8604 112.479
lradius 55.3184 0 0
lwrist 26.3366 0 0
lhand 41.8423 24.9229 0
lfingers 7.12502 0 0
lthumb 63.9392 34.0617 0
rclavicle 5.05339e-15 -5.59601e-14 0
rhumerus -0.842455 4.84847 -3.93278
rradius 38.0759 0 0
rwrist -16.3087 0 0
rhand -16.7609 -37.2963 0
rfingers 7.12502 0 0
rthumb 9.46533 -787.109 0
960
root 1.27338 15.3397 32.8608 6.94681 -4.51985 365.214
lfemur 5.86847 -0.866941 3.27947
ltibia 3.88564 0 0
lfoot -31.8647 -15.1422 0
ltoes -32.2638 0 0
rfemur -28.597 -9.45129 -10.3389
rtibia 44.3066 0 0
rfoot -17.857 -1.28043 0
rtoes -45.8742 0 0
lowerback -3.95343 -0.653359 -0.144382
upperback -1.59073 -0.78839 -7.42079
thorax 0.396628 -0.424247 -7.73291
lowerneck -6.97324 0.88133 3.76558
upperneck 1.96484 0.698912 3.71572
head 1.78977 0.47642 0.558471
lclavicle 5.15681e-15 -5.54928e-14 0
lhumerus -59.8183 -43.8765 112.523
lradius 55.3081 0 0
lwrist 26.3564 0 0
lhand 41.8443 24.951 0
lfingers 7.12502 0 0
lthumb 63.9418 34.0939 0
rclavicle 5.15681e-15 -5.54928e-14 0
rhumerus -0.734461 4.727 -3.79399
rradius 37.9097 0 0
rwrist -16.2519 0 0
rhand -16.7948 -37.2787 0
rfingers 7.12502 0 0
rthumb 9.43263 -787.093 0
961
root 1.26879 15.3364 32.8631 6.95952 -4.5753 365.214
lfemur 5.92998 -0.910119 3.33169
ltibia 3.81219 0 0
lfoot -31.9004 -15.1401 0
ltoes -32.3362 0 0
rfemur -28.549 -9.44733 -10.3732
rtibia 44.2122 0 0
rfoot -17.9502 -1.27218 0
rtoes -45.9216 0 0
lowerback -3.96782 -0.641515 -0.135042
upperback -1.59213 -0.771437 -7.42213
thorax 0.402811 -0.415699 -7.74036
lowerneck -6.97583 0.890351 3.78782
upperneck 1.9602 0.709025 3.71403
head 1.78837 0.481542 0.554634
lclavicle 5.25546e-15 -5.50115e-14 0
lhumerus -59.8438 -43.8929 112.567
lradius 55.2982 0 0
lwrist 26.3753 0 0
lhand 41.8449 24.9783 0
lfingers 7.12502 0 0
lthumb 63.9431 34.1265 0
rclavicle 5.25546e-15 -5.50115e-14 0
rhumerus -0.629157 4.60068 -3.65838
rradius 37.7456 0 0
rwrist -16.1947 0 0
rhand -16.8319 -37.2629 0
rfingers 7.12502 0 0
rthumb 9.39672 -787.079 0
962
root 1.26435 15.3331 32.8652 6.97118 -4.62859 365.214
lfemur 5.98994 -0.951302 3.38273
ltibia 3.74114 0 0
lfoot -31.935 -15.1364 0
ltoes -32.4069 0 0
rfemur -28.5032 -9.44527 -10.4051
rtibia 44.1226 0 0
rfoot -18.0415 -1.26218 0
rtoes -45.9659 0 0
lowerback -3.98112 -0.629866 -0.126155
upperback -1.59313 -0.754794 -7.42293
thorax 0.408872 -0.407298 -7.74693
lowerneck -6.97853 0.898989 3.81015
upperneck 1.95579 0.718595 3.71247
head 1.78708 0.486405 0.550799
lclavicle 5.3494e-15 -5.45166e-14 0
lhumerus -59.8679 -43.9097 112.61
lradius 55.2888 0 0
lwrist 26.3933 0 0
lhand 41.8441 25.0049 0
lfingers 7.12502 0 0
lthumb 63.9433 34.1595 0
rclavicle 5.3494e-15 -5.45166e-14 0
rhumerus -0.526511 4.46958 -3.52591
rradius 37.5837 0 0
rwrist -16.137 0 0
rhand -16.8724 -37.249 0
rfingers 7.12502 0 0
rthumb 9.35764 -787.067 0
